<svg width="54" height="54" viewBox="0 0 54 54" fill="none" xmlns="http://www.w3.org/2000/svg">
<path d="M35.3999 38.4002C35.7555 38.8002 36.2221 39.0002 36.7999 39.0002C37.3777 39.0002 37.8666 38.7779 38.2666 38.3335C38.711 37.9335 38.9333 37.4335 38.9333 36.8335C38.9333 36.2335 38.7332 35.7335 38.3332 35.3335L29.1999 26.2002V14.7335C29.1999 14.2002 29.011 13.7446 28.6333 13.3668C28.2555 12.9891 27.7777 12.8002 27.1999 12.8002C26.6221 12.8002 26.1444 12.9891 25.7666 13.3668C25.3888 13.7446 25.1999 14.2224 25.1999 14.8002V27.0002C25.1999 27.2668 25.2444 27.5113 25.3333 27.7335C25.4221 27.9557 25.5555 28.1779 25.7332 28.4002L35.3999 38.4002ZM26.9999 53.6668C23.3555 53.6668 19.911 52.9668 16.6666 51.5668C13.4221 50.1668 10.5888 48.2557 8.16658 45.8335C5.74436 43.4113 3.83325 40.5779 2.43325 37.3335C1.03325 34.089 0.333252 30.6446 0.333252 27.0002C0.333252 23.3557 1.03325 19.9113 2.43325 16.6668C3.83325 13.4224 5.74436 10.5891 8.16658 8.16683C10.5888 5.74461 13.4221 3.8335 16.6666 2.4335C19.911 1.0335 23.3555 0.333496 26.9999 0.333496C30.6444 0.333496 34.0888 1.0335 37.3332 2.4335C40.5777 3.8335 43.411 5.74461 45.8332 8.16683C48.2555 10.5891 50.1666 13.4224 51.5666 16.6668C52.9666 19.9113 53.6666 23.3557 53.6666 27.0002C53.6666 30.6446 52.9666 34.089 51.5666 37.3335C50.1666 40.5779 48.2555 43.4113 45.8332 45.8335C43.411 48.2557 40.5777 50.1668 37.3332 51.5668C34.0888 52.9668 30.6444 53.6668 26.9999 53.6668Z" fill="white"/>
</svg>
