<svg width="24" height="14" viewBox="0 0 24 14" fill="none" xmlns="http://www.w3.org/2000/svg">
<path d="M11.9998 13.1501C11.7998 13.1501 11.6165 13.1168 11.4498 13.0501C11.2831 12.9834 11.1165 12.8668 10.9498 12.7001L1.04981 2.80011C0.783144 2.53345 0.658144 2.17511 0.67481 1.72511C0.691477 1.27511 0.833144 0.916781 1.09981 0.650115C1.43314 0.316781 1.79148 0.175115 2.17481 0.225115C2.55814 0.275115 2.89981 0.433448 3.19981 0.700115L11.9998 9.50011L20.7998 0.700115C21.0665 0.433448 21.4248 0.283448 21.8748 0.250115C22.3248 0.216781 22.6831 0.366781 22.9498 0.700115C23.2831 0.966781 23.4248 1.31678 23.3748 1.75011C23.3248 2.18345 23.1665 2.55011 22.8998 2.85011L13.0498 12.7001C12.8831 12.8668 12.7165 12.9834 12.5498 13.0501C12.3831 13.1168 12.1998 13.1501 11.9998 13.1501Z" fill="black"/>
</svg>
