<svg width="24" height="13" viewBox="0 0 24 13" fill="none" xmlns="http://www.w3.org/2000/svg">
<path d="M11.9998 12.9348C11.7998 12.9348 11.6165 12.9014 11.4498 12.8348C11.2831 12.7681 11.1165 12.6514 10.9498 12.4848L1.04981 2.58478C0.783144 2.31812 0.658144 1.95978 0.67481 1.50978C0.691477 1.05978 0.833144 0.701449 1.09981 0.434783C1.43314 0.101449 1.79148 -0.0402174 2.17481 0.00978261C2.55814 0.0597826 2.89981 0.218116 3.19981 0.484783L11.9998 9.28478L20.7998 0.484783C21.0665 0.218116 21.4248 0.0681159 21.8748 0.0347826C22.3248 0.00144928 22.6831 0.151449 22.9498 0.484783C23.2831 0.751449 23.4248 1.10145 23.3748 1.53478C23.3248 1.96812 23.1665 2.33478 22.8998 2.63478L13.0498 12.4848C12.8831 12.6514 12.7165 12.7681 12.5498 12.8348C12.3831 12.9014 12.1998 12.9348 11.9998 12.9348Z" fill="white"/>
</svg>
