<svg width="94" height="64" viewBox="0 0 94 64" fill="none" xmlns="http://www.w3.org/2000/svg">
<path d="M46.9999 48.7333L34.5999 56.2C34.2444 56.4222 33.8666 56.5222 33.4666 56.5C33.0666 56.4777 32.711 56.3555 32.3999 56.1333C32.0888 55.9111 31.8555 55.6222 31.6999 55.2666C31.5444 54.9111 31.511 54.5111 31.5999 54.0666L34.8666 39.9333L23.9333 30.4C23.5777 30.0889 23.3666 29.7444 23.2999 29.3666C23.2333 28.9889 23.2444 28.6222 23.3333 28.2666C23.4222 27.9111 23.6222 27.6111 23.9333 27.3666C24.2444 27.1222 24.6222 26.9777 25.0666 26.9333L39.5333 25.6666L45.1333 12.3333C45.311 11.9333 45.5777 11.6333 45.9333 11.4333C46.2888 11.2333 46.6444 11.1333 46.9999 11.1333C47.3555 11.1333 47.711 11.2333 48.0666 11.4333C48.4222 11.6333 48.6888 11.9333 48.8666 12.3333L54.4666 25.6666L68.9333 26.9333C69.3777 26.9777 69.7555 27.1222 70.0666 27.3666C70.3777 27.6111 70.5777 27.9111 70.6666 28.2666C70.7555 28.6222 70.7666 28.9889 70.6999 29.3666C70.6333 29.7444 70.4222 30.0889 70.0666 30.4L59.1333 39.9333L62.3999 54.0666C62.4888 54.5111 62.4555 54.9111 62.2999 55.2666C62.1444 55.6222 61.911 55.9111 61.5999 56.1333C61.2888 56.3555 60.9333 56.4777 60.5333 56.5C60.1333 56.5222 59.7555 56.4222 59.3999 56.2L46.9999 48.7333Z" fill="#F1BD40"/>
<path d="M78.0001 56.3669L71.8001 60.1002C71.6223 60.2113 71.4334 60.2613 71.2334 60.2502C71.0334 60.2391 70.8556 60.178 70.7001 60.0669C70.5445 59.9558 70.4279 59.8113 70.3501 59.6336C70.2723 59.4558 70.2556 59.2558 70.3001 59.0336L71.9334 51.9669L66.4668 47.2002C66.289 47.0447 66.1834 46.8724 66.1501 46.6836C66.1168 46.4947 66.1223 46.3113 66.1668 46.1336C66.2112 45.9558 66.3112 45.8058 66.4668 45.6836C66.6223 45.5613 66.8112 45.4891 67.0334 45.4669L74.2668 44.8336L77.0668 38.1669C77.1556 37.9669 77.289 37.8169 77.4668 37.7169C77.6445 37.6169 77.8223 37.5669 78.0001 37.5669C78.1779 37.5669 78.3556 37.6169 78.5334 37.7169C78.7112 37.8169 78.8445 37.9669 78.9334 38.1669L81.7334 44.8336L88.9668 45.4669C89.189 45.4891 89.3779 45.5613 89.5334 45.6836C89.689 45.8058 89.789 45.9558 89.8334 46.1336C89.8779 46.3113 89.8834 46.4947 89.8501 46.6836C89.8168 46.8724 89.7112 47.0447 89.5334 47.2002L84.0668 51.9669L85.7001 59.0336C85.7445 59.2558 85.7279 59.4558 85.6501 59.6336C85.5723 59.8113 85.4556 59.9558 85.3001 60.0669C85.1445 60.178 84.9668 60.2391 84.7668 60.2502C84.5668 60.2613 84.3779 60.2113 84.2001 60.1002L78.0001 56.3669Z" fill="#F1BD40"/>
<path d="M16.0001 56.3669L9.80009 60.1002C9.62231 60.2113 9.43342 60.2613 9.23342 60.2502C9.03342 60.2391 8.85565 60.178 8.70009 60.0669C8.54454 59.9558 8.42787 59.8113 8.35009 59.6336C8.27231 59.4558 8.25565 59.2558 8.30009 59.0336L9.93342 51.9669L4.46676 47.2002C4.28898 47.0447 4.18342 46.8724 4.15009 46.6836C4.11676 46.4947 4.12231 46.3113 4.16676 46.1336C4.2112 45.9558 4.3112 45.8058 4.46676 45.6836C4.62231 45.5613 4.8112 45.4891 5.03342 45.4669L12.2668 44.8336L15.0668 38.1669C15.1556 37.9669 15.289 37.8169 15.4668 37.7169C15.6445 37.6169 15.8223 37.5669 16.0001 37.5669C16.1779 37.5669 16.3556 37.6169 16.5334 37.7169C16.7112 37.8169 16.8445 37.9669 16.9334 38.1669L19.7334 44.8336L26.9668 45.4669C27.189 45.4891 27.3779 45.5613 27.5334 45.6836C27.689 45.8058 27.789 45.9558 27.8334 46.1336C27.8779 46.3113 27.8834 46.4947 27.8501 46.6836C27.8168 46.8724 27.7112 47.0447 27.5334 47.2002L22.0668 51.9669L23.7001 59.0336C23.7445 59.2558 23.7279 59.4558 23.6501 59.6336C23.5723 59.8113 23.4556 59.9558 23.3001 60.0669C23.1445 60.178 22.9668 60.2391 22.7668 60.2502C22.5668 60.2613 22.3779 60.2113 22.2001 60.1002L16.0001 56.3669Z" fill="#F1BD40"/>
</svg>
