<svg width="24" height="14" viewBox="0 0 24 14" fill="none" xmlns="http://www.w3.org/2000/svg">
<path d="M11.9998 0.215119C11.7998 0.215119 11.6165 0.248453 11.4498 0.31512C11.2831 0.381786 11.1165 0.498453 10.9498 0.66512L1.04981 10.5651C0.783144 10.8318 0.658144 11.1901 0.67481 11.6401C0.691477 12.0901 0.833144 12.4485 1.09981 12.7151C1.43314 13.0485 1.79148 13.1901 2.17481 13.1401C2.55814 13.0901 2.89981 12.9318 3.19981 12.6651L11.9998 3.86512L20.7998 12.6651C21.0665 12.9318 21.4248 13.0818 21.8748 13.1151C22.3248 13.1485 22.6831 12.9985 22.9498 12.6651C23.2831 12.3985 23.4248 12.0485 23.3748 11.6151C23.3248 11.1818 23.1665 10.8151 22.8998 10.5151L13.0498 0.66512C12.8831 0.498453 12.7165 0.381786 12.5498 0.31512C12.3831 0.248453 12.1998 0.215119 11.9998 0.215119Z" fill="black"/>
</svg>
