<svg width="24" height="13" viewBox="0 0 24 13" fill="none" xmlns="http://www.w3.org/2000/svg">
<path d="M11.9998 -0.000212669C11.7998 -0.000212669 11.6165 0.0331211 11.4498 0.0997877C11.2831 0.166454 11.1165 0.283121 10.9498 0.449788L1.04981 10.3498C0.783144 10.6165 0.658144 10.9748 0.67481 11.4248C0.691477 11.8748 0.833144 12.2331 1.09981 12.4998C1.43314 12.8331 1.79148 12.9748 2.17481 12.9248C2.55814 12.8748 2.89981 12.7165 3.19981 12.4498L11.9998 3.64979L20.7998 12.4498C21.0665 12.7165 21.4248 12.8665 21.8748 12.8998C22.3248 12.9331 22.6831 12.7831 22.9498 12.4498C23.2831 12.1831 23.4248 11.8331 23.3748 11.3998C23.3248 10.9665 23.1665 10.5998 22.8998 10.2998L13.0498 0.449788C12.8831 0.283121 12.7165 0.166454 12.5498 0.0997877C12.3831 0.0331211 12.1998 -0.000212669 11.9998 -0.000212669Z" fill="white"/>
</svg>
