<svg width="245" height="55" viewBox="0 0 245 55" fill="none" xmlns="http://www.w3.org/2000/svg">
<path d="M46.096 43.272C46.576 40.728 47.008 38.52 47.392 36.648C47.776 34.728 48.112 32.952 48.4 31.32C48.688 29.688 48.952 28.08 49.192 26.496C49.48 24.864 49.768 23.064 50.056 21.096C50.392 19.08 50.752 16.8 51.136 14.256C51.568 11.664 52.072 8.568 52.648 4.968C52.792 4.056 53.032 3.48 53.368 3.24C53.704 2.952 54.544 2.808 55.888 2.808C56.416 2.808 57.208 2.856 58.264 2.952C59.32 3 60.376 3.216 61.432 3.6C62.488 3.936 63.4 4.488 64.168 5.256C64.984 5.976 65.392 7.008 65.392 8.352C65.392 9.12 65.248 10.32 64.96 11.952C64.672 13.536 64.264 15.384 63.736 17.496C63.256 19.56 62.68 21.816 62.008 24.264C61.384 26.712 60.736 29.184 60.064 31.68C59.392 34.176 58.696 36.6 57.976 38.952C57.304 41.304 56.656 43.44 56.032 45.36C55.456 47.232 54.928 48.816 54.448 50.112C53.968 51.408 53.632 52.248 53.44 52.632C53.152 53.16 52.744 53.52 52.216 53.712C51.688 53.904 51.16 54 50.632 54H43.792C42.544 54 41.488 53.76 40.624 53.28C39.808 52.8 39.112 52.176 38.536 51.408C38.008 50.64 37.576 49.776 37.24 48.816C36.952 47.856 36.76 46.872 36.664 45.864L33.064 13.536C32.776 15.648 32.44 18.024 32.056 20.664C31.72 23.304 31.336 25.992 30.904 28.728C30.52 31.464 30.136 34.152 29.752 36.792C29.368 39.432 28.984 41.856 28.6 44.064C28.216 46.224 27.856 48.072 27.52 49.608C27.184 51.144 26.896 52.152 26.656 52.632C26.416 53.16 26.032 53.52 25.504 53.712C24.976 53.904 24.424 54 23.848 54H17.008C15.808 54 14.8 53.784 13.984 53.352C13.216 52.872 12.568 52.248 12.04 51.48C11.512 50.712 11.08 49.848 10.744 48.888C10.408 47.88 10.12 46.872 9.88 45.864C7.912 38.04 6.304 31.608 5.056 26.568C3.856 21.528 2.896 17.496 2.176 14.472C1.456 11.4 0.952 9.168 0.664 7.776C0.424 6.336 0.304 5.304 0.304 4.68C0.304 3.864 0.544 3.336 1.024 3.096C1.552 2.856 2.632 2.736 4.264 2.736C6.28 2.736 7.96 2.88 9.304 3.168C10.696 3.456 11.824 3.912 12.688 4.536C13.552 5.112 14.2 5.904 14.632 6.912C15.112 7.872 15.424 9.048 15.568 10.44C15.568 10.632 15.592 10.92 15.64 11.304C15.688 11.64 15.736 12.216 15.784 13.032C15.88 13.848 16 14.976 16.144 16.416C16.336 17.808 16.552 19.68 16.792 22.032C17.08 24.384 17.416 27.312 17.8 30.816C18.232 34.272 18.736 38.424 19.312 43.272C19.84 40.344 20.248 37.992 20.536 36.216C20.872 34.392 21.16 32.808 21.4 31.464C21.64 30.072 21.856 28.752 22.048 27.504C22.24 26.208 22.456 24.624 22.696 22.752C22.984 20.832 23.296 18.432 23.632 15.552C24.016 12.672 24.496 8.928 25.072 4.32C25.12 3.984 25.312 3.72 25.648 3.528C26.032 3.336 26.488 3.192 27.016 3.096C27.544 3 28.12 2.952 28.744 2.952C29.416 2.904 30.04 2.88 30.616 2.88C32.536 2.88 34.168 3 35.512 3.24C36.856 3.432 37.96 3.792 38.824 4.32C39.736 4.848 40.456 5.568 40.984 6.48C41.512 7.344 41.944 8.424 42.28 9.72C42.424 10.344 42.592 11.208 42.784 12.312C42.976 13.368 43.192 15.072 43.432 17.424C43.72 19.776 44.056 23.016 44.44 27.144C44.872 31.224 45.424 36.6 46.096 43.272ZM84.0175 54.72C80.7055 54.72 77.9455 54.264 75.7375 53.352C73.5775 52.392 71.8495 51.096 70.5535 49.464C69.2575 47.832 68.3455 45.936 67.8175 43.776C67.2895 41.568 67.0255 39.216 67.0255 36.72C67.0255 33.84 67.3615 31.032 68.0335 28.296C68.7535 25.512 69.9535 23.04 71.6335 20.88C73.3135 18.72 75.5215 16.992 78.2575 15.696C81.0415 14.352 84.4975 13.68 88.6255 13.68C94.6735 13.68 98.9935 15.168 101.586 18.144C104.226 21.072 105.546 25.2 105.546 30.528C105.546 32.016 105.426 33.672 105.186 35.496C104.994 37.272 104.586 39.048 103.962 40.824C103.386 42.6 102.57 44.328 101.514 46.008C100.506 47.688 99.2095 49.176 97.6255 50.472C96.0415 51.768 94.1215 52.8 91.8655 53.568C89.6575 54.336 87.0415 54.72 84.0175 54.72ZM87.4015 23.256C85.5775 23.256 84.1135 23.736 83.0095 24.696C81.9535 25.608 81.1375 26.736 80.5615 28.08C80.0335 29.376 79.6735 30.768 79.4815 32.256C79.3375 33.696 79.2655 34.92 79.2655 35.928C79.2655 39.096 79.7695 41.424 80.7775 42.912C81.7855 44.4 83.2255 45.144 85.0975 45.144C86.7775 45.144 88.1455 44.616 89.2015 43.56C90.3055 42.504 91.1455 41.232 91.7215 39.744C92.3455 38.256 92.7535 36.696 92.9455 35.064C93.1855 33.432 93.3055 32.064 93.3055 30.96C93.3055 28.56 92.8495 26.688 91.9375 25.344C91.0735 23.952 89.5615 23.256 87.4015 23.256ZM134.177 31.608C133.889 31.608 133.553 31.608 133.169 31.608C132.833 31.56 132.497 31.512 132.161 31.464C131.825 31.368 131.537 31.272 131.297 31.176C131.057 31.032 130.937 30.864 130.937 30.672C130.937 30.048 130.961 29.472 131.009 28.944C131.057 28.416 131.081 27.864 131.081 27.288C131.081 26.232 130.937 25.368 130.649 24.696C130.361 24.024 129.785 23.688 128.921 23.688C127.577 23.688 126.449 24.576 125.537 26.352C124.673 28.08 124.121 30.696 123.881 34.2C123.785 35.736 123.641 37.488 123.449 39.456C123.305 41.376 123.161 43.248 123.017 45.072C122.873 46.848 122.753 48.432 122.657 49.824C122.561 51.216 122.513 52.128 122.513 52.56C122.513 53.04 122.345 53.4 122.009 53.64C121.673 53.88 121.313 54 120.929 54H118.337C116.849 54 115.625 53.856 114.665 53.568C113.753 53.232 113.009 52.776 112.433 52.2C111.905 51.624 111.521 50.928 111.281 50.112C111.089 49.248 110.993 48.264 110.993 47.16C110.993 46.44 111.017 45.432 111.065 44.136C111.161 42.792 111.305 40.968 111.497 38.664C111.689 36.312 111.905 33.36 112.145 29.808C112.433 26.208 112.769 21.768 113.153 16.488C113.249 15.096 113.753 14.4 114.665 14.4H117.473C118.817 14.4 119.945 14.544 120.857 14.832C121.769 15.12 122.513 15.528 123.089 16.056C123.665 16.536 124.073 17.112 124.313 17.784C124.601 18.456 124.793 19.152 124.889 19.872C125.465 18.768 126.137 17.832 126.905 17.064C127.721 16.248 128.561 15.6 129.425 15.12C130.289 14.592 131.177 14.232 132.089 14.04C133.001 13.8 133.841 13.68 134.609 13.68C135.521 13.68 136.433 13.848 137.345 14.184C138.305 14.52 139.169 15.024 139.937 15.696C140.705 16.368 141.305 17.232 141.737 18.288C142.217 19.344 142.457 20.592 142.457 22.032C142.457 23.328 142.265 24.552 141.881 25.704C141.497 26.856 140.945 27.888 140.225 28.8C139.505 29.664 138.617 30.36 137.561 30.888C136.553 31.368 135.425 31.608 134.177 31.608ZM158.55 54.72C156.678 54.72 154.878 54.384 153.15 53.712C151.47 53.04 149.982 51.984 148.686 50.544C147.438 49.104 146.43 47.28 145.662 45.072C144.942 42.864 144.582 40.2 144.582 37.08C144.582 35.688 144.678 34.152 144.87 32.472C145.062 30.744 145.398 29.016 145.878 27.288C146.358 25.56 147.03 23.88 147.894 22.248C148.758 20.616 149.838 19.176 151.134 17.928C152.478 16.632 154.062 15.6 155.886 14.832C157.758 14.064 159.942 13.68 162.438 13.68C164.838 13.68 166.758 14.112 168.198 14.976C169.686 15.792 170.622 17.232 171.006 19.296C171.102 17.424 171.198 15.792 171.294 14.4C171.39 13.008 171.462 11.712 171.51 10.512C171.606 9.312 171.702 8.112 171.798 6.912C171.894 5.712 171.99 4.344 172.086 2.808C172.134 1.752 172.254 1.128 172.446 0.935997C172.542 0.839998 172.662 0.791998 172.806 0.791998C172.95 0.743999 173.214 0.719999 173.598 0.719999H176.406C177.846 0.719999 179.046 0.887999 180.006 1.224C180.966 1.56 181.734 2.016 182.31 2.592C182.886 3.168 183.294 3.84 183.534 4.608C183.774 5.328 183.894 6.096 183.894 6.912C183.894 6.912 183.846 7.512 183.75 8.712C183.654 9.912 183.534 11.52 183.39 13.536C183.246 15.504 183.078 17.76 182.886 20.304C182.694 22.848 182.502 25.488 182.31 28.224C182.118 30.912 181.926 33.6 181.734 36.288C181.542 38.928 181.35 41.376 181.158 43.632C180.966 45.84 180.798 47.76 180.654 49.392C180.558 50.976 180.486 52.032 180.438 52.56C180.342 53.136 180.222 53.52 180.078 53.712C179.934 53.904 179.526 54 178.854 54H176.262C175.254 54 174.294 53.928 173.382 53.784C172.518 53.592 171.75 53.304 171.078 52.92C170.454 52.488 169.95 51.936 169.566 51.264C169.23 50.544 169.062 49.632 169.062 48.528C168.198 50.352 166.878 51.84 165.102 52.992C163.374 54.144 161.19 54.72 158.55 54.72ZM164.814 23.256C162.366 23.256 160.542 24.336 159.342 26.496C158.19 28.608 157.614 31.464 157.614 35.064C157.614 36.312 157.686 37.536 157.83 38.736C158.022 39.936 158.334 41.016 158.766 41.976C159.198 42.936 159.774 43.704 160.494 44.28C161.262 44.856 162.222 45.144 163.374 45.144C165.438 45.144 167.166 44.136 168.558 42.12C169.95 40.104 170.646 36.936 170.646 32.616C170.646 31.416 170.574 30.264 170.43 29.16C170.286 28.008 169.998 27 169.566 26.136C169.134 25.272 168.534 24.576 167.766 24.048C166.998 23.52 166.014 23.256 164.814 23.256ZM197.531 54.648C194.555 54.648 192.419 53.856 191.123 52.272C189.827 50.688 189.179 48.072 189.179 44.424C189.179 43.848 189.203 43.128 189.251 42.264C189.347 41.4 189.443 40.296 189.539 38.952C189.683 37.56 189.851 35.856 190.043 33.84C190.235 31.824 190.427 29.376 190.619 26.496C190.859 23.616 191.099 20.232 191.339 16.344C191.627 12.456 191.915 7.944 192.203 2.808C192.251 1.752 192.371 1.128 192.563 0.935997C192.707 0.791998 193.091 0.719999 193.715 0.719999H196.523C197.963 0.719999 199.163 0.887999 200.123 1.224C201.083 1.56 201.851 2.016 202.427 2.592C203.003 3.168 203.411 3.84 203.651 4.608C203.891 5.328 204.011 6.096 204.011 6.912C204.011 7.872 203.939 9.264 203.795 11.088C203.699 12.864 203.555 14.88 203.363 17.136C203.171 19.392 202.979 21.744 202.787 24.192C202.595 26.64 202.403 28.992 202.211 31.248C202.019 33.456 201.851 35.448 201.707 37.224C201.611 39 201.563 40.344 201.563 41.256C201.563 42.504 201.779 43.392 202.211 43.92C202.691 44.448 203.195 44.832 203.723 45.072C204.251 45.264 204.731 45.408 205.163 45.504C205.643 45.552 205.883 45.696 205.883 45.936C205.883 46.992 205.763 48.048 205.523 49.104C205.283 50.112 204.851 51.048 204.227 51.912C203.603 52.728 202.739 53.4 201.635 53.928C200.579 54.408 199.211 54.648 197.531 54.648ZM227.537 54.72C225.425 54.72 223.313 54.456 221.201 53.928C219.137 53.4 217.265 52.488 215.585 51.192C213.953 49.896 212.609 48.168 211.553 46.008C210.497 43.848 209.969 41.136 209.969 37.872C209.969 36.672 210.065 35.232 210.257 33.552C210.449 31.872 210.809 30.144 211.337 28.368C211.913 26.592 212.681 24.84 213.641 23.112C214.649 21.336 215.945 19.752 217.529 18.36C219.113 16.968 221.033 15.84 223.289 14.976C225.545 14.112 228.233 13.68 231.353 13.68C233.849 13.68 235.961 13.968 237.689 14.544C239.417 15.12 240.809 15.912 241.865 16.92C242.921 17.88 243.689 19.008 244.169 20.304C244.649 21.6 244.889 22.992 244.889 24.48C244.889 26.688 244.433 28.56 243.521 30.096C242.657 31.632 241.505 32.928 240.065 33.984C238.673 34.992 237.113 35.784 235.385 36.36C233.657 36.936 231.953 37.392 230.273 37.728C228.593 38.016 227.033 38.208 225.593 38.304C224.201 38.352 223.121 38.376 222.353 38.376C222.353 39.288 222.473 40.2 222.713 41.112C223.001 41.976 223.409 42.744 223.937 43.416C224.465 44.088 225.161 44.64 226.025 45.072C226.889 45.504 227.945 45.72 229.193 45.72C230.441 45.72 231.401 45.528 232.073 45.144C232.793 44.712 233.369 44.256 233.801 43.776C234.233 43.248 234.593 42.792 234.881 42.408C235.217 41.976 235.649 41.76 236.177 41.76C236.417 41.76 236.825 41.832 237.401 41.976C238.025 42.072 238.649 42.312 239.273 42.696C239.897 43.08 240.449 43.608 240.929 44.28C241.409 44.952 241.649 45.816 241.649 46.872C241.649 48.264 241.217 49.464 240.353 50.472C239.489 51.48 238.361 52.296 236.969 52.92C235.625 53.544 234.113 54 232.433 54.288C230.753 54.576 229.121 54.72 227.537 54.72ZM228.905 23.256C227.849 23.256 226.937 23.568 226.169 24.192C225.449 24.768 224.825 25.512 224.297 26.424C223.817 27.336 223.433 28.344 223.145 29.448C222.905 30.552 222.713 31.608 222.569 32.616C225.545 32.568 227.945 32.064 229.769 31.104C231.641 30.144 232.577 28.776 232.577 27C232.577 26.04 232.265 25.176 231.641 24.408C231.065 23.64 230.153 23.256 228.905 23.256Z" fill="#9769F9"/>
</svg>
